{"title":"Prometheus.[2012].720p.DVDRip.x264.[Dual Audio].6Ch.[Hindi+Engli","uid":7632584,"size":1580434214,"categoryP":"video","categoryS":"hd___movies","magnet":"?xt=urn:btih:44ae1f2e260e93c7d45746b904bba44388c4bf62&amp;dn=Prometheus.%5B2012%5D.720p.DVDRip.x264.%5BDual+Audio%5D.6Ch.%5BHindi%2BEngli&amp;tr=udp%3A%2F%2Ftracker.openbittorrent.com%3A80&amp;tr=udp%3A%2F%2Fopen.demonii.com%3A1337&amp;tr=udp%3A%2F%2Ftracker.coppersurfer.tk%3A6969&amp;tr=udp%3A%2F%2Fexodus.desync.com%3A6969","seeders":0,"leechers":1,"uploader":"TeamExD","files":4,"time":1347570779,"description":"Format                                   : Matroska\nFormat version                           : Version 2\nFile size                                : 1.46 GiB\nDuration                                 : 1h 58mn\nOverall bit rate                         : 1 761 Kbps\nMovie name                               : Prometheus.[2012].720p.BRRip.x264.[Dual Audio].6Ch.[Hindi+English].by K@rtik [ExD Exclusive]\nCodec ID                                 : V_MPEG4/ISO/AVC\nDuration                                 : 1h 58mn\nBit rate                                 : 928 Kbps\nWidth                                    : 1 280 pixels\nHeight                                   : 520 pixels\nDisplay aspect ratio                     : 2.462\nFrame rate                               : 25.000 fps\nColor space                              : YUV\nChroma subsampling                       : 4:2:0\nBit depth                                : 8 bits\nScan type                                : Progressive\nBits/(Pixel*Frame)                       : 0.056\nStream size                              : 759 MiB (51%)\nTitle                                    : K@rtik\nWriting library                          : x264 core 125 r2200 999b7\nCodec ID                                 : A_AC3\nDuration                                 : 1h 58mn\nBit rate mode                            : Constant\nBit rate                                 : 448 Kbps\nChannel(s)                               : 6 channels\nChannel positions                        : Front: L C R, Side: L R, LFE\nSampling rate                            : 48.0 KHz\nBit depth                                : 16 bits\nStream size                              : 380 MiB (25%)\nTitle                                    : K@rtik\nLanguage                                 : English\nCodec ID                                 : A_AC3\nBit rate                                 : 384 Kbps\nChannel(s)                               : 6 channels\nChannel positions                        : Front: L C R, Side: L R, LFE\nSampling rate                            : 48.0 KHz\nBit depth                                : 16 bits\nStream size                              : 326 MiB (22%)\nTitle                                    : K@rtik\nLanguage                                 : Hindi &lt;a href=&quot;\nhttp://img856.imageshack.us/img856/5053/91225159.png&quot; rel=&quot;nofollow&quot; target=&quot;_NEW&quot;&gt;\nhttp://img856.imageshack.us/img856/5053/91225159.png&lt;/a&gt; &lt;a href=&quot;\nhttp://img805.imageshack.us/img805/6738/26979353.png&quot; rel=&quot;nofollow&quot; target=&quot;_NEW&quot;&gt;\nhttp://img805.imageshack.us/img805/6738/26979353.png&lt;/a&gt; &lt;a href=&quot;\nhttp://img254.imageshack.us/img254/8894/83691742.png&quot; rel=&quot;nofollow&quot; target=&quot;_NEW&quot;&gt;\nhttp://img254.imageshack.us/img254/8894/83691742.png&lt;/a&gt; &lt;a href=&quot;\nhttp://img849.imageshack.us/img849/1015/10327911.png&quot; rel=&quot;nofollow&quot; target=&quot;_NEW&quot;&gt;\nhttp://img849.imageshack.us/img849/1015/10327911.png&lt;/a&gt; &lt;a href=&quot;\nhttp://img84.imageshack.us/img84/24/75535828.png&quot; rel=&quot;nofollow&quot; target=&quot;_NEW&quot;&gt;\nhttp://img84.imageshack.us/img84/24/75535828.png&lt;/a&gt; &lt;a href=&quot;\nhttp://img40.imageshack.us/img40/9645/42338509.png&quot; rel=&quot;nofollow&quot; target=&quot;_NEW&quot;&gt;\nhttp://img40.imageshack.us/img40/9645/42338509.png&lt;/a&gt; &lt;a href=&quot;\nhttp://img528.imageshack.us/img528/295/63811983.png&quot; rel=&quot;nofollow&quot; target=&quot;_NEW&quot;&gt;\nhttp://img528.imageshack.us/img528/295/63811983.png&lt;/a&gt; &lt;a href=&quot;\nhttp://img253.imageshack.us/img253/2186/99559995.png&quot; rel=&quot;nofollow&quot; target=&quot;_NEW&quot;&gt;\nhttp://img253.imageshack.us/img253/2186/99559995.png&lt;/a&gt; &lt;a href=&quot;\nhttp://img821.imageshack.us/img821/5197/56373838.png&quot; rel=&quot;nofollow&quot; target=&quot;_NEW&quot;&gt;\nhttp://img821.imageshack.us/img821/5197/56373838.png&lt;/a&gt; &lt;a href=&quot;\nhttp://img801.imageshack.us/img801/5328/98385824.png&quot; rel=&quot;nofollow&quot; target=&quot;_NEW&quot;&gt;\nhttp://img801.imageshack.us/img801/5328/98385824.png&lt;/a&gt;\n","torrent":{"xt":"urn:btih:44ae1f2e260e93c7d45746b904bba44388c4bf62","amp;dn":"Prometheus.%5B2012%5D.720p.DVDRip.x264.%5BDual+Audio%5D.6Ch.%5BHindi%2BEngli","amp;tr":["udp%3A%2F%2Ftracker.openbittorrent.com%3A80","udp%3A%2F%2Fopen.demonii.com%3A1337","udp%3A%2F%2Ftracker.coppersurfer.tk%3A6969","udp%3A%2F%2Fexodus.desync.com%3A6969"],"infoHash":"44ae1f2e260e93c7d45746b904bba44388c4bf62","infoHashBuffer":{"type":"Buffer","data":[68,174,31,46,38,14,147,199,212,87,70,185,4,187,164,67,136,196,191,98]},"announce":[],"urlList":[]}}